<svg xmlns="http://www.w3.org/2000/svg" viewBox="0 0 40 40" enable-background="new 0 0 40 40" xmlns:xlink="http://www.w3.org/1999/xlink"><defs><linearGradient id="0" gradientUnits="userSpaceOnUse" x1="38.05" y1="41.684" x2="12.976" y2="27.27"><stop stop-color="#0052cc"/><stop offset=".92" stop-color="#2380fb"/><stop offset="1" stop-color="#2684ff"/></linearGradient><linearGradient id="1" gradientUnits="userSpaceOnUse" x1="1.946" y1="-1.668" x2="27.02" y2="12.742" xlink:href="#0"/></defs><path d="m1.4 30.1c-.4.7-.9 1.5-1.2 2.1-.3.6-.2 1.3.4 1.7l8.3 5.1c.6.4 1.4.2 1.8-.4.3-.6.8-1.3 1.2-2 3.3-5.4 6.6-4.7 12.6-1.9l8.2 3.9c.6.3 1.4 0 1.7-.6l3.9-8.9c.3-.6 0-1.4-.6-1.7-1.7-.8-5.2-2.4-8.3-3.9-11.2-5.5-20.7-5.2-28 6.6" fill="url(#0)"/><path d="m38.6 9.9c.4-.7.9-1.5 1.2-2.1.4-.6.2-1.4-.4-1.7l-8.3-5.1c-.6-.4-1.4-.2-1.8.4-.3.6-.8 1.3-1.2 2-3.3 5.4-6.6 4.8-12.5 1.9l-8.2-3.8c-.7-.4-1.4-.1-1.7.5l-4 9c-.3.6 0 1.4.6 1.7 1.7.8 5.2 2.4 8.3 3.9 11.2 5.4 20.7 5.1 28-6.7" fill="url(#1)"/></svg>